<svg data-v-1084b650="" xmlns="http://www.w3.org/2000/svg" viewBox="0 0 300 300"><!----> <!----> <rect data-v-1084b650="" fill="#E1F4FC" x="0" y="0" width="300px" height="300px" class="logo-background-square"></rect> <!----> <linearGradient data-v-1084b650="" gradientTransform="rotate(25)" id="f371db6d-1a37-4b26-3e51-3537379442b5" x1="0%" y1="0%" x2="100%" y2="0%"><stop data-v-1084b650="" offset="0%" style="stop-color: rgb(13, 124, 233); stop-opacity: 1;"></stop> <stop data-v-1084b650="" offset="100%" style="stop-color: rgb(21, 207, 241); stop-opacity: 1;"></stop></linearGradient> <g data-v-1084b650="" id="24eb73a5-9a6e-f943-ba99-327b853ac255" fill="url(#f371db6d-1a37-4b26-3e51-3537379442b5)" stroke="none" transform="matrix(0.6999999999999997,0,0,0.6999999999999997,45.00000000000004,45.00000000000004)"><svg xmlns="http://www.w3.org/2000/svg" data-icon="code" data-container-transform="translate(0 2)" viewBox="0 0 16 16"><path d="M7.969 2L6 13.844 5.969 14h2.063l1.969-11.844.031-.156H7.969zM5 3.813l-.531.344-4 2.5L0 6.938v2.126l.469.281 4 2.5.531.344V9.814L2.094 8.001 5 6.188V3.813zm6 0v2.375l2.906 1.813L11 9.814v2.375l.531-.344 4-2.5.469-.281V6.938l-.469-.281-4-2.5L11 3.813z"></path></svg></g></svg>